<svg width="0" height="0" class="hidden">
  <symbol viewBox="0 0 12 20" fill="none" xmlns="http://www.w3.org/2000/svg" id="arrow-left">
    <path d="M.71 9.01l8.6-8.6a1.4 1.4 0 1 1 1.98 1.981l-7.61 7.61 7.61 7.608a1.4 1.4 0 0 1-1.98 1.98L.71 10.99a1.396 1.396 0 0 1 0-1.98z" fill="#fff"></path>
  </symbol>
  <symbol viewBox="0 0 36 38" fill="none" xmlns="http://www.w3.org/2000/svg" id="play-video">
    <path d="M34.13 17.343L3.732.243A1.898 1.898 0 0 0 .9 1.9v34.2a1.898 1.898 0 0 0 2.831 1.657l30.4-17.1c.596-.338.969-.97.969-1.657 0-.688-.373-1.319-.97-1.657z" fill="#CD0E14"></path>
  </symbol>
  <symbol viewBox="0 0 14 14" fill="none" xmlns="http://www.w3.org/2000/svg" id="search">
    <path d="M13.915 13.09L9.848 9.023a5.513 5.513 0 0 0 1.235-3.481A5.548 5.548 0 0 0 5.542 0 5.548 5.548 0 0 0 0 5.542a5.548 5.548 0 0 0 5.542 5.541 5.513 5.513 0 0 0 3.48-1.235l4.068 4.067a.292.292 0 0 0 .412 0l.413-.413a.292.292 0 0 0 0-.412zM5.542 9.917a4.38 4.38 0 0 1-4.375-4.375 4.38 4.38 0 0 1 4.375-4.375 4.38 4.38 0 0 1 4.375 4.375 4.38 4.38 0 0 1-4.375 4.375z" fill="#fff" fill-opacity=".71"></path>
  </symbol>
  <symbol viewBox="0 0 13 13" fill="none" xmlns="http://www.w3.org/2000/svg" id="tel">
    <path d="M12.709 10.274l-2.01-2.01c-.4-.399-1.06-.384-1.475.027L8.212 9.303a3.697 3.697 0 0 1-.198-.112c-.638-.355-1.512-.84-2.43-1.76-.924-.921-1.41-1.795-1.764-2.437a42.718 42.718 0 0 0-.108-.194l.68-.676.332-.332c.415-.415.426-1.076.026-1.476L2.741.306c-.4-.4-1.06-.388-1.475.026L.698.904l.015.015a3.347 3.347 0 0 0-.676 1.654c-.261 2.2.744 4.209 3.47 6.931 3.768 3.769 6.804 3.481 6.935 3.47a3.35 3.35 0 0 0 1.654-.672l.011.01.572-.56c.414-.418.43-1.079.03-1.478z" fill="#fff"></path>
  </symbol>
  <symbol viewBox="0 0 12 20" fill="none" xmlns="http://www.w3.org/2000/svg" id="arrow">
    <path d="M11.29 10.99l-8.6 8.6a1.4 1.4 0 1 1-1.98-1.981l7.61-7.61L.71 2.392A1.4 1.4 0 0 1 2.69.41l8.6 8.599a1.396 1.396 0 0 1 0 1.98z" fill="#fff"></path>
  </symbol>
</svg>