<svg width="13" height="13" viewBox="0 0 13 13" fill="none" xmlns="http://www.w3.org/2000/svg">
<path d="M12.7087 10.2738L10.6995 8.26459C10.2999 7.86499 9.63889 7.87993 9.22436 8.29073L8.21229 9.3028C8.1488 9.26919 8.08158 9.23184 8.01436 9.19076C7.37575 8.83598 6.50186 8.35049 5.58316 7.43178C4.66073 6.50935 4.17523 5.63546 3.82045 4.99312C3.78311 4.92589 3.74576 4.85867 3.71215 4.79892L4.39184 4.12296L4.72421 3.79059C5.13875 3.37605 5.14995 2.71504 4.75036 2.31544L2.74116 0.306245C2.34157 -0.093353 1.68055 -0.0821494 1.26601 0.332387L0.698359 0.903774L0.713297 0.918713C0.522835 1.16146 0.365983 1.44155 0.246478 1.74032C0.138175 2.02788 0.0709533 2.3005 0.0373423 2.57312C-0.224077 4.77278 0.78052 6.78197 3.50675 9.50446C7.27492 13.2726 10.3111 12.9851 10.4418 12.9739C10.7257 12.9403 11.002 12.873 11.2784 12.7647C11.5771 12.649 11.8572 12.4884 12.0962 12.3016L12.1074 12.3129L12.6788 11.7527C13.0934 11.3344 13.1083 10.6734 12.7087 10.2738Z" fill="white"/>
</svg>
